<svg width="66" height="81" viewBox="0 0 66 81" fill="none" xmlns="http://www.w3.org/2000/svg">
<g filter="url(#filter0_d_1278_1130)">
<path d="M4.76758 72.5491V22.4908C4.76758 9.14189 15.8917 2.46744 21.4537 0.798828H38.1398C44.8143 1.91124 61.5004 8.61843 61.5004 27.4966C61.5004 47.52 45.9267 51.9696 36.4712 52.5258H21.4537V62.5375C21.4537 69.2119 15.8689 70.3357 14.7793 70.8805C13.484 71.5282 7.5486 72.5491 4.76758 72.5491Z" fill="#216BFF"/>
</g>
<g filter="url(#filter1_d_1278_1130)">
<path d="M19.7168 37.584C18.0487 37.5848 9.14891 36.4716 4.69928 37.584C4.69892 24.1943 1.43003 4.16566 21.3849 0.830411C33.0214 -1.11451 46.4825 17.4848 44.8139 30.8487C43.3669 42.4382 31.465 52.5256 29.7964 52.5256C18.603 52.5256 23.4479 37.5824 19.7168 37.584Z" fill="url(#paint0_linear_1278_1130)"/>
</g>
<g filter="url(#filter2_d_1278_1130)">
<path d="M20.007 37.508V27.4964H16.4473L30.6861 14.1475L43.1451 27.4964H39.5854V37.508H32.4659V30.8336H27.1264V37.508H20.007Z" fill="white"/>
</g>
<defs>
<filter id="filter0_d_1278_1130" x="0.767578" y="0.798828" width="64.7324" height="79.75" filterUnits="userSpaceOnUse" color-interpolation-filters="sRGB">
<feFlood flood-opacity="0" result="BackgroundImageFix"/>
<feColorMatrix in="SourceAlpha" type="matrix" values="0 0 0 0 0 0 0 0 0 0 0 0 0 0 0 0 0 0 127 0" result="hardAlpha"/>
<feOffset dy="4"/>
<feGaussianBlur stdDeviation="2"/>
<feComposite in2="hardAlpha" operator="out"/>
<feColorMatrix type="matrix" values="0 0 0 0 0 0 0 0 0 0 0 0 0 0 0 0 0 0 0.25 0"/>
<feBlend mode="normal" in2="BackgroundImageFix" result="effect1_dropShadow_1278_1130"/>
<feBlend mode="normal" in="SourceGraphic" in2="effect1_dropShadow_1278_1130" result="shape"/>
</filter>
<filter id="filter1_d_1278_1130" x="0.5" y="0.689453" width="48.4551" height="59.8359" filterUnits="userSpaceOnUse" color-interpolation-filters="sRGB">
<feFlood flood-opacity="0" result="BackgroundImageFix"/>
<feColorMatrix in="SourceAlpha" type="matrix" values="0 0 0 0 0 0 0 0 0 0 0 0 0 0 0 0 0 0 127 0" result="hardAlpha"/>
<feOffset dy="4"/>
<feGaussianBlur stdDeviation="2"/>
<feComposite in2="hardAlpha" operator="out"/>
<feColorMatrix type="matrix" values="0 0 0 0 0 0 0 0 0 0 0 0 0 0 0 0 0 0 0.25 0"/>
<feBlend mode="normal" in2="BackgroundImageFix" result="effect1_dropShadow_1278_1130"/>
<feBlend mode="normal" in="SourceGraphic" in2="effect1_dropShadow_1278_1130" result="shape"/>
</filter>
<filter id="filter2_d_1278_1130" x="12.4473" y="14.1475" width="34.6973" height="31.3604" filterUnits="userSpaceOnUse" color-interpolation-filters="sRGB">
<feFlood flood-opacity="0" result="BackgroundImageFix"/>
<feColorMatrix in="SourceAlpha" type="matrix" values="0 0 0 0 0 0 0 0 0 0 0 0 0 0 0 0 0 0 127 0" result="hardAlpha"/>
<feOffset dy="4"/>
<feGaussianBlur stdDeviation="2"/>
<feComposite in2="hardAlpha" operator="out"/>
<feColorMatrix type="matrix" values="0 0 0 0 0 0 0 0 0 0 0 0 0 0 0 0 0 0 0.25 0"/>
<feBlend mode="normal" in2="BackgroundImageFix" result="effect1_dropShadow_1278_1130"/>
<feBlend mode="normal" in="SourceGraphic" in2="effect1_dropShadow_1278_1130" result="shape"/>
</filter>
<linearGradient id="paint0_linear_1278_1130" x1="-2.34001" y1="-12.9906" x2="48.96" y2="59.9695" gradientUnits="userSpaceOnUse">
<stop stop-color="#3A79F8"/>
<stop offset="1" stop-color="#144099"/>
</linearGradient>
</defs>
</svg>
