<svg width="20" height="21" viewBox="0 0 20 21" fill="none" xmlns="http://www.w3.org/2000/svg">
<g clip-path="url(#clip0_2_346)">
<g clip-path="url(#clip1_2_346)">
<path d="M0.269562 14.2616H10.1102V16.0697H16.2616V14.2655H18.7055C18.8638 16.4158 18.8762 18.3304 16.6708 19.7897C16.6438 19.8075 16.6222 19.8318 16.5624 19.885C16.8336 20.1103 17.101 20.3329 17.3656 20.5529C17.0084 20.8945 16.7213 21.169 16.3923 21.4842C16.102 21.1848 15.788 20.8373 15.4459 20.5207C15.3454 20.4275 15.1674 20.3894 15.0216 20.3802C14.7832 20.3657 14.5415 20.4045 14.3011 20.4052C11.1058 20.4071 7.91058 20.4065 4.71467 20.4065C4.56164 20.4065 4.3981 20.436 4.2569 20.3933C3.83064 20.2653 3.56005 20.4629 3.30653 20.7684C3.09045 21.0284 2.84415 21.2629 2.61888 21.5007C2.31479 21.1808 2.03959 20.8918 1.73485 20.5707C1.93911 20.39 2.19854 20.1602 2.49015 19.9014C2.28917 19.7576 2.13877 19.6577 1.99625 19.5474C0.928316 18.7244 0.351003 17.6329 0.275473 16.2924C0.238036 15.6284 0.268905 14.9604 0.268905 14.2616H0.269562Z" fill="#090909"/>
<path d="M0.275466 9.28712C0.270212 9.16824 0.261017 9.06119 0.261017 8.95413C0.26036 7.21366 0.25839 5.47384 0.261017 3.73336C0.263644 1.82081 1.591 0.486222 3.50093 0.500014C4.14195 0.504612 4.80268 0.491476 5.41874 0.636625C6.51163 0.894741 7.19994 1.65267 7.53227 2.7206C7.59663 2.92814 7.68005 3.02863 7.90795 3.09037C9.19393 3.43912 10.0964 4.64104 10.1128 5.98219C10.1154 6.19827 10.1128 6.41435 10.1128 6.64882H4.0257C3.7354 5.11392 4.56952 3.52976 6.31328 3.0352C6.15565 2.35017 5.48113 1.7722 4.77312 1.74725C4.23784 1.7282 3.70059 1.72623 3.16531 1.74725C2.24253 1.78337 1.50037 2.63062 1.49643 3.64666C1.48986 5.39765 1.49446 7.14929 1.49446 8.90028C1.49446 9.01981 1.49446 9.13935 1.49446 9.28647H0.274153L0.275466 9.28712Z" fill="#090909"/>
<path d="M10.0931 13.0327C9.96434 13.0327 9.86779 13.0327 9.77125 13.0327C6.64364 13.0327 3.51538 13.0334 0.387779 13.0321C-0.285425 13.0321 -0.769474 12.7135 -0.939581 12.1697C-1.19573 11.3514 -0.615787 10.5632 0.268244 10.5514C1.20876 10.5389 2.14927 10.5481 3.08979 10.5481C5.29921 10.5481 7.50797 10.5481 9.71739 10.5481C9.83561 10.5481 9.95383 10.5481 10.0931 10.5481V13.0321V13.0327Z" fill="#090909"/>
<path d="M15.0235 14.8711H11.3633C11.3574 14.7555 11.3475 14.6504 11.3475 14.5453C11.3462 13.2771 11.3462 12.0082 11.3475 10.7399C11.3482 9.82239 11.8493 9.31798 12.7629 9.31404C13.1018 9.31272 13.4407 9.3055 13.7796 9.31601C14.5408 9.34031 15.038 9.85194 15.04 10.6151C15.0439 11.9385 15.0413 13.2613 15.04 14.5847C15.04 14.6708 15.0308 14.7561 15.0235 14.8711Z" fill="#090909"/>
<path d="M16.2833 13.0209V10.5481C16.8783 10.5481 17.4648 10.5462 18.0507 10.5488C18.3561 10.5501 18.668 10.5251 18.9669 10.5744C19.6191 10.6821 20.0434 11.2161 20.0164 11.8394C19.9902 12.4508 19.5389 12.9756 18.8986 13.0091C18.0395 13.0544 17.1765 13.0203 16.2839 13.0203L16.2833 13.0209Z" fill="#090909"/>
</g>
</g>
<defs>
<clipPath id="clip0_2_346">
<rect width="20" height="20" fill="white" transform="translate(0 0.5)"/>
</clipPath>
<clipPath id="clip1_2_346">
<rect width="21.0171" height="21" fill="white" transform="translate(-1 0.5)"/>
</clipPath>
</defs>
</svg>
