<svg width="20" height="20" viewBox="0 0 20 20" fill="none" xmlns="http://www.w3.org/2000/svg">
<g clip-path="url(#clip0_2_340)">
<g clip-path="url(#clip1_2_340)">
<path d="M10.0118 17.4597C7.0136 17.4597 4.01618 17.4597 1.01797 17.4597C0.714838 17.4597 0.574691 17.5984 0.574691 17.8977C0.574691 17.9752 0.578628 18.0527 0.573904 18.1295C0.567605 18.2225 0.558157 18.3155 0.540835 18.4062C0.476273 18.7372 0.158973 19.0023 -0.220528 18.9984C-0.601603 18.9946 -0.917328 18.7116 -0.974804 18.3481C-0.988189 18.2628 -0.995275 18.1752 -0.995275 18.0891C-0.996063 16.3279 -1.00787 14.5659 -0.991339 12.8046C-0.98189 11.7783 -0.60239 10.8853 0.125117 10.1419C0.566817 9.69069 1.09198 9.36976 1.69272 9.16511C2.16513 9.00465 2.65328 8.95581 3.15088 8.95581C7.76237 8.95736 12.3738 8.95348 16.9853 8.95891C18.3364 8.96046 19.4308 9.4969 20.2418 10.5636C20.6402 11.0884 20.878 11.6845 20.9591 12.3357C20.9866 12.555 20.9984 12.7783 20.9992 13C21.0024 14.7101 21.0016 16.4202 21.0008 18.1302C21.0008 18.3977 20.9339 18.6411 20.7103 18.8178C20.4741 19.0046 20.2103 19.0535 19.9292 18.9395C19.6599 18.8295 19.4899 18.6271 19.4513 18.338C19.4316 18.1922 19.434 18.0426 19.43 17.8953C19.4237 17.6574 19.3237 17.5139 19.1238 17.4698C19.0797 17.4597 19.0332 17.4605 18.9875 17.4605C15.9964 17.4605 13.0053 17.4605 10.0134 17.4605L10.0118 17.4597Z" fill="#090909"/>
<path d="M9.90237 2C11.8471 2 13.7911 2 15.735 2C16.3862 2 16.9948 2.14341 17.5199 2.53953C18.1955 3.04884 18.5899 3.71938 18.623 4.56124C18.6513 5.27519 18.6387 5.9907 18.6419 6.70543C18.6443 7.16589 18.6419 7.62636 18.6419 8.08682C18.6419 8.12791 18.6395 8.17132 18.6285 8.21085C18.5947 8.33566 18.5262 8.38527 18.397 8.36124C18.2561 8.33488 18.1199 8.27829 17.979 8.26279C17.6475 8.22713 17.3152 8.20233 16.9822 8.18527C16.7601 8.17364 16.6916 8.13411 16.6602 7.91938C16.5594 7.23876 15.9193 6.62636 15.1004 6.63566C14.1871 6.64574 13.2738 6.63798 12.3612 6.63798C11.6818 6.63798 11.1015 7.03643 10.8708 7.66434C10.8377 7.75426 10.8251 7.85194 10.8078 7.94651C10.7755 8.11628 10.7118 8.17984 10.5401 8.18217C10.1803 8.18605 9.8197 8.18605 9.45988 8.18217C9.29454 8.18062 9.22919 8.11628 9.19927 7.92791C9.15754 7.66357 9.05361 7.42791 8.88354 7.22093C8.57569 6.84574 8.17729 6.64186 7.68599 6.63953C6.74354 6.63488 5.80109 6.63721 4.85785 6.63876C4.06578 6.63953 3.44614 7.24884 3.34536 7.91783C3.31308 8.13411 3.24773 8.17209 3.02569 8.18605C2.658 8.21008 2.29031 8.24419 1.92341 8.28295C1.81082 8.29457 1.70295 8.34264 1.59115 8.36124C1.47069 8.38062 1.41479 8.34031 1.38093 8.22403C1.36755 8.17829 1.36125 8.12946 1.36125 8.0814C1.36046 6.97674 1.3455 5.87209 1.3644 4.76744C1.38408 3.61163 1.92656 2.76202 2.9879 2.24806C3.40834 2.04574 3.86422 2 4.3256 2C6.18452 2 8.04345 2 9.90237 2Z" fill="#090909"/>
</g>
</g>
<defs>
<clipPath id="clip0_2_340">
<rect width="20" height="20" fill="white"/>
</clipPath>
<clipPath id="clip1_2_340">
<rect width="22" height="17" fill="white" transform="translate(-1 2)"/>
</clipPath>
</defs>
</svg>
