<svg width="106" height="106" viewBox="0 0 106 106" fill="none" xmlns="http://www.w3.org/2000/svg">
<path d="M0.5 54.5538V17.2576L19.9915 9.67188L36.968 17.2576V54.5538H0.5Z" fill="#FDDAEB"/>
<path d="M36.6541 18.2058L19.3633 9.67188H40.7411L55.5169 18.2058V54.5538H36.6541V18.2058Z" fill="#FCB6D8"/>
<rect x="6.7832" y="24.8447" width="7.5451" height="7.58568" fill="#FF99CB"/>
<rect x="6.7832" y="36.2217" width="7.5451" height="7.58568" fill="#FF99CB"/>
<rect x="21.25" y="36.2217" width="7.5451" height="7.58568" fill="#FF99CB"/>
<rect x="21.25" y="24.8447" width="7.5451" height="7.58568" fill="#FF99CB"/>
<path d="M48.0542 68.3018C40.857 68.3018 34.7664 65.8085 29.7825 60.8219C24.7986 55.8354 22.3054 49.7449 22.3027 42.5503C22.3001 35.3557 24.7934 29.2652 29.7825 24.2786C34.7717 19.2921 40.8623 16.7988 48.0542 16.7988C55.2461 16.7988 61.338 19.2921 66.3298 24.2786C71.3216 29.2652 73.8136 35.3557 73.8056 42.5503C73.8056 45.4556 73.3434 48.1958 72.419 50.7709C71.4946 53.3461 70.2401 55.6241 68.6554 57.605L90.8412 79.7909C91.5675 80.5172 91.9307 81.4416 91.9307 82.5641C91.9307 83.6866 91.5675 84.611 90.8412 85.3373C90.1149 86.0637 89.1905 86.4268 88.068 86.4268C86.9455 86.4268 86.0211 86.0637 85.2948 85.3373L63.1089 63.1515C61.128 64.7362 58.85 65.9907 56.2748 66.9151C53.6997 67.8395 50.9595 68.3018 48.0542 68.3018ZM48.0542 60.3782C53.0064 60.3782 57.2164 58.6456 60.6843 55.1804C64.1522 51.7152 65.8848 47.5051 65.8821 42.5503C65.8795 37.5954 64.1469 33.3867 60.6843 29.9242C57.2217 26.4616 53.0117 24.7276 48.0542 24.7224C43.0967 24.7171 38.888 26.451 35.4281 29.9242C31.9681 33.3973 30.2342 37.606 30.2263 42.5503C30.2183 47.4946 31.9523 51.7046 35.4281 55.1804C38.9038 58.6562 43.1126 60.3888 48.0542 60.3782Z" fill="#216BFF"/>
<path d="M66.5196 0.189453L69.9874 5.46666L74.6934 9.35548L69.9874 13.2443L66.5196 18.5215L63.0517 13.2443L58.3457 9.35548L63.0517 5.46666L66.5196 0.189453Z" fill="#FFE9B2"/>
<path d="M14.334 63.4023L17.8019 68.6796L22.5079 72.5684L17.8019 76.4572L14.334 81.7344L10.8661 76.4572L6.16016 72.5684L10.8661 68.6796L14.334 63.4023Z" fill="#FFE9B2"/>
</svg>
