<svg width="93" height="106" viewBox="0 0 93 106" fill="none" xmlns="http://www.w3.org/2000/svg">
<path d="M24.0723 25.7493C24.0723 23.705 24.8844 21.7443 26.33 20.2987C27.7756 18.8531 29.7362 18.041 31.7806 18.041H57.475C59.5194 18.041 61.4801 18.8531 62.9257 20.2987C64.3712 21.7443 65.1834 23.705 65.1834 25.7493V43.7355H71.1787C72.191 43.7355 73.1934 43.9348 74.1286 44.3222C75.0638 44.7096 75.9136 45.2774 76.6294 45.9932C77.3451 46.709 77.9129 47.5587 78.3003 48.4939C78.6877 49.4292 78.8871 50.4315 78.8871 51.4438V83.1336H72.0352V86.5595H26.6417C25.9603 86.5595 25.3067 86.2888 24.8248 85.807C24.343 85.3251 24.0723 84.6716 24.0723 83.9901V25.7493Z" fill="url(#paint0_linear_1556_247)"/>
<path d="M24.0723 25.7493C24.0723 23.705 24.8844 21.7443 26.33 20.2987C27.7756 18.8531 29.7362 18.041 31.7806 18.041H57.475C59.5194 18.041 61.4801 18.8531 62.9257 20.2987C64.3712 21.7443 65.1834 23.705 65.1834 25.7493V43.7355H71.1787C72.191 43.7355 73.1934 43.9348 74.1286 44.3222C75.0638 44.7096 75.9136 45.2774 76.6294 45.9932C77.3451 46.709 77.9129 47.5587 78.3003 48.4939C78.6877 49.4292 78.8871 50.4315 78.8871 51.4438V83.1336H72.0352V86.5595H26.6417C25.9603 86.5595 25.3067 86.2888 24.8248 85.807C24.343 85.3251 24.0723 84.6716 24.0723 83.9901V25.7493Z" fill="url(#paint1_radial_1556_247)"/>
<path d="M24.0723 25.7493C24.0723 23.705 24.8844 21.7443 26.33 20.2987C27.7756 18.8531 29.7362 18.041 31.7806 18.041H57.475C59.5194 18.041 61.4801 18.8531 62.9257 20.2987C64.3712 21.7443 65.1834 23.705 65.1834 25.7493V43.7355H71.1787C72.191 43.7355 73.1934 43.9348 74.1286 44.3222C75.0638 44.7096 75.9136 45.2774 76.6294 45.9932C77.3451 46.709 77.9129 47.5587 78.3003 48.4939C78.6877 49.4292 78.8871 50.4315 78.8871 51.4438V83.1336H72.0352V86.5595H26.6417C25.9603 86.5595 25.3067 86.2888 24.8248 85.807C24.343 85.3251 24.0723 84.6716 24.0723 83.9901V25.7493Z" fill="url(#paint2_radial_1556_247)"/>
<path d="M34.3496 33.4582C34.3496 34.3668 34.7106 35.2382 35.353 35.8806C35.9955 36.5231 36.8669 36.8841 37.7755 36.8841C38.6841 36.8841 39.5555 36.5231 40.198 35.8806C40.8405 35.2382 41.2015 34.3668 41.2015 33.4582C41.2015 32.5495 40.8405 31.6781 40.198 31.0357C39.5555 30.3932 38.6841 30.0322 37.7755 30.0322C36.8669 30.0322 35.9955 30.3932 35.353 31.0357C34.7106 31.6781 34.3496 32.5495 34.3496 33.4582ZM37.7755 54.0137C36.8669 54.0137 35.9955 54.3747 35.353 55.0171C34.7106 55.6596 34.3496 56.531 34.3496 57.4396C34.3496 58.3482 34.7106 59.2196 35.353 59.8621C35.9955 60.5046 36.8669 60.8656 37.7755 60.8656C38.6841 60.8656 39.5555 60.5046 40.198 59.8621C40.8405 59.2196 41.2015 58.3482 41.2015 57.4396C41.2015 56.531 40.8405 55.6596 40.198 55.0171C39.5555 54.3747 38.6841 54.0137 37.7755 54.0137ZM37.7755 42.023C36.8669 42.023 35.9955 42.3839 35.353 43.0264C34.7106 43.6689 34.3496 44.5403 34.3496 45.4489C34.3496 46.3575 34.7106 47.2289 35.353 47.8714C35.9955 48.5139 36.8669 48.8748 37.7755 48.8748C38.6841 48.8748 39.5555 48.5139 40.198 47.8714C40.8405 47.2289 41.2015 46.3575 41.2015 45.4489C41.2015 44.5403 40.8405 43.6689 40.198 43.0264C39.5555 42.3839 38.6841 42.023 37.7755 42.023ZM51.4792 30.0322C50.5706 30.0322 49.6992 30.3932 49.0567 31.0357C48.4143 31.6781 48.0533 32.5495 48.0533 33.4582C48.0533 34.3668 48.4143 35.2382 49.0567 35.8806C49.6992 36.5231 50.5706 36.8841 51.4792 36.8841C52.3879 36.8841 53.2592 36.5231 53.9017 35.8806C54.5442 35.2382 54.9052 34.3668 54.9052 33.4582C54.9052 32.5495 54.5442 31.6781 53.9017 31.0357C53.2592 30.3932 52.3879 30.0322 51.4792 30.0322ZM51.4792 42.023C50.5706 42.023 49.6992 42.3839 49.0567 43.0264C48.4143 43.6689 48.0533 44.5403 48.0533 45.4489C48.0533 46.3575 48.4143 47.2289 49.0567 47.8714C49.6992 48.5139 50.5706 48.8748 51.4792 48.8748C52.3879 48.8748 53.2592 48.5139 53.9017 47.8714C54.5442 47.2289 54.9052 46.3575 54.9052 45.4489C54.9052 44.5403 54.5442 43.6689 53.9017 43.0264C53.2592 42.3839 52.3879 42.023 51.4792 42.023Z" fill="url(#paint3_linear_1556_247)"/>
<path d="M61.7578 69.4297H78.8874V89.9852H61.7578V69.4297Z" fill="url(#paint4_linear_1556_247)"/>
<path d="M72.3785 56.8395C71.7855 56.3947 71.0642 56.1543 70.3229 56.1543C69.5816 56.1543 68.8604 56.3947 68.2674 56.8395L56.2766 65.8325C55.8511 66.1517 55.5058 66.5654 55.2679 67.0412C55.0301 67.5169 54.9062 68.0414 54.9062 68.5733V86.5594C54.9062 87.468 55.2672 88.3394 55.9097 88.9819C56.5522 89.6244 57.4236 89.9853 58.3322 89.9853H65.184V77.9946C65.184 77.5403 65.3645 77.1046 65.6857 76.7833C66.007 76.4621 66.4427 76.2816 66.897 76.2816H73.7488C74.2031 76.2816 74.6388 76.4621 74.9601 76.7833C75.2813 77.1046 75.4618 77.5403 75.4618 77.9946V89.9853H82.3137C83.2223 89.9853 84.0937 89.6244 84.7362 88.9819C85.3786 88.3394 85.7396 87.468 85.7396 86.5594V68.5733C85.7396 68.0414 85.6157 67.5169 85.3779 67.0412C85.14 66.5654 84.7947 66.1517 84.3692 65.8325L72.3785 56.8395Z" fill="url(#paint5_linear_1556_247)"/>
<path fill-rule="evenodd" clip-rule="evenodd" d="M70.3219 58.9811L84.1626 69.7454C84.4279 69.9636 84.7341 70.1264 85.0634 70.2242C85.3926 70.322 85.7381 70.3528 86.0794 70.3148C86.4208 70.2768 86.751 70.1707 87.0507 70.0029C87.3503 69.8351 87.6133 69.6089 87.824 69.3377C88.0347 69.0665 88.1889 68.7558 88.2775 68.424C88.3661 68.0921 88.3873 67.7459 88.3398 67.4058C88.2923 67.0656 88.1771 66.7385 88.001 66.4436C87.8249 66.1488 87.5914 65.8922 87.3145 65.6891L72.9496 54.5172C72.1981 53.9332 71.2736 53.6162 70.3219 53.6162C69.3702 53.6162 68.4457 53.9332 67.6942 54.5172L53.3293 65.6891C53.0523 65.8922 52.8189 66.1488 52.6428 66.4436C52.4667 66.7385 52.3515 67.0656 52.304 67.4058C52.2565 67.7459 52.2777 68.0921 52.3663 68.424C52.4549 68.7558 52.6091 69.0665 52.8198 69.3377C53.0305 69.6089 53.2935 69.8351 53.5931 70.0029C53.8928 70.1707 54.223 70.2768 54.5644 70.3148C54.9057 70.3528 55.2512 70.322 55.5804 70.2242C55.9097 70.1264 56.2159 69.9636 56.4812 69.7454L70.3219 58.9811Z" fill="url(#paint6_linear_1556_247)"/>
<path d="M83.3418 25.5781L87.2662 31.4954L92.5918 35.8559L87.2662 40.2164L83.3418 46.1337L79.4174 40.2164L74.0918 35.8559L79.4174 31.4954L83.3418 25.5781Z" fill="#FCB6D8"/>
<path d="M18.5911 0.189453L23.8237 8.48186L30.9245 14.5926L23.8237 20.7033L18.5911 28.9957L13.3586 20.7033L6.25781 14.5926L13.3586 8.48186L18.5911 0.189453Z" fill="#FFE9B2"/>
<path d="M9.3418 63.9746L13.2662 69.8978L18.5918 74.2626L13.2662 78.6274L9.3418 84.5505L5.41735 78.6274L0.0917969 74.2626L5.41735 69.8978L9.3418 63.9746Z" fill="#FDDAEB"/>
<defs>
<linearGradient id="paint0_linear_1556_247" x1="24.0723" y1="20.1822" x2="89.4424" y2="87.1351" gradientUnits="userSpaceOnUse">
<stop stop-color="#29C3FF"/>
<stop offset="1" stop-color="#2764E7"/>
</linearGradient>
<radialGradient id="paint1_radial_1556_247" cx="0" cy="0" r="1" gradientUnits="userSpaceOnUse" gradientTransform="translate(65.1834 82.2771) rotate(90) scale(28.2639 16.2731)">
<stop stop-color="#4A43CB"/>
<stop offset="0.914" stop-color="#4A43CB" stop-opacity="0"/>
</radialGradient>
<radialGradient id="paint2_radial_1556_247" cx="0" cy="0" r="1" gradientUnits="userSpaceOnUse" gradientTransform="translate(68.6093 66.004) rotate(142.125) scale(19.5308 13.202)">
<stop stop-color="#4A43CB"/>
<stop offset="0.914" stop-color="#4A43CB" stop-opacity="0"/>
</radialGradient>
<linearGradient id="paint3_linear_1556_247" x1="41.7153" y1="26.6063" x2="58.1701" y2="62.8081" gradientUnits="userSpaceOnUse">
<stop stop-color="#FDFDFD"/>
<stop offset="1" stop-color="#B3E0FF"/>
</linearGradient>
<linearGradient id="paint4_linear_1556_247" x1="70.3226" y1="69.4297" x2="60.7095" y2="90.8006" gradientUnits="userSpaceOnUse">
<stop stop-color="#944600"/>
<stop offset="1" stop-color="#CD8E02"/>
</linearGradient>
<linearGradient id="paint5_linear_1556_247" x1="57.8491" y1="59.5254" x2="83.6737" y2="84.6374" gradientUnits="userSpaceOnUse">
<stop stop-color="#FFD394"/>
<stop offset="1" stop-color="#FFB357"/>
</linearGradient>
<linearGradient id="paint6_linear_1556_247" x1="72.0349" y1="48.8747" x2="69.51" y2="68.906" gradientUnits="userSpaceOnUse">
<stop stop-color="#FF921F"/>
<stop offset="1" stop-color="#EB4824"/>
</linearGradient>
</defs>
</svg>
