<svg width="69" height="68" viewBox="0 0 69 68" fill="none" xmlns="http://www.w3.org/2000/svg">
<path d="M27.7806 3.09634C31.5926 -0.362223 37.4074 -0.36222 41.2194 3.09634L41.7357 3.5648C43.6746 5.32388 46.2259 6.2525 48.8419 6.15124L49.5385 6.12427C54.6818 5.92518 59.1362 9.6628 59.8332 14.7625L59.9276 15.4533C60.2822 18.0471 61.6397 20.3984 63.7088 22.0024L64.2598 22.4295C68.3277 25.5831 69.3374 31.3094 66.5934 35.6641L66.2217 36.2539C64.826 38.4688 64.3545 41.1427 64.9085 43.7013L65.0561 44.3827C66.1452 49.4133 63.2379 54.449 58.3367 56.021L57.6728 56.2339C55.18 57.0335 53.1001 58.7787 51.8798 61.0948L51.5548 61.7116C49.1556 66.2654 43.6916 68.2541 38.9265 66.3079L38.2811 66.0443C35.8575 65.0545 33.1425 65.0545 30.7189 66.0443L30.0735 66.3079C25.3084 68.2541 19.8444 66.2654 17.4452 61.7116L17.1202 61.0948C15.8999 58.7787 13.82 57.0335 11.3272 56.2339L10.6633 56.021C5.76211 54.449 2.85475 49.4133 3.94395 44.3827L4.09148 43.7013C4.64546 41.1427 4.17399 38.4688 2.77831 36.2539L2.40662 35.6641C-0.337443 31.3094 0.672273 25.5831 4.74024 22.4295L5.29125 22.0024C7.36028 20.3984 8.71783 18.0471 9.07236 15.4533L9.16678 14.7625C9.86383 9.6628 14.3182 5.92518 19.4615 6.12427L20.1581 6.15124C22.7741 6.2525 25.3254 5.32388 27.2643 3.5648L27.7806 3.09634Z" fill="#B4964A"/>
</svg>
