<svg width="80" height="79" viewBox="0 0 80 79" fill="none" xmlns="http://www.w3.org/2000/svg">
<path d="M17.4475 25.3714C8.36549 25.3714 0.921875 32.7922 0.921875 41.8498C0.921875 45.3595 2.04247 48.6214 3.93977 51.3024L15.4314 71.1678C17.0407 73.2705 18.1109 72.8715 19.4495 71.0576L32.1238 49.4878C32.3796 49.0235 32.5803 48.5309 32.7557 48.0272C33.5594 46.0668 33.9729 43.9685 33.9731 41.8498C33.9731 32.7922 26.5319 25.3714 17.4475 25.3714ZM17.4475 33.0928C22.3391 33.0928 26.2297 36.9731 26.2297 41.8506C26.2297 46.728 22.3383 50.6068 17.4475 50.6068C12.5567 50.6068 8.66531 46.7272 8.66531 41.8506C8.66531 36.9739 12.5575 33.0928 17.4475 33.0928ZM69.9754 0.189453C64.6778 0.189453 60.3354 4.51838 60.3354 9.80265C60.3354 11.8495 60.9886 13.7523 62.0958 15.3159L68.7997 26.9043C69.7385 28.1304 70.3626 27.8974 71.1432 26.8398L78.5365 14.2567C78.686 13.9868 78.8032 13.6995 78.9047 13.4052C79.3751 12.2624 79.6165 11.0384 79.6153 9.80265C79.6153 4.51759 75.2746 0.189453 69.9754 0.189453ZM69.9754 4.69387C72.8288 4.69387 75.0983 6.95709 75.0983 9.80265C75.0983 12.6482 72.8288 14.9099 69.9754 14.9099C67.122 14.9099 64.8525 12.6474 64.8525 9.80265C64.8525 6.95788 67.1228 4.69387 69.9754 4.69387Z" fill="#216BFF"/>
<path fill-rule="evenodd" clip-rule="evenodd" d="M70.3376 29.6299C68.5693 29.6692 66.7963 29.744 65.0202 29.8754L65.2941 34.2287C67.0002 34.1051 68.7092 34.0255 70.4194 33.9903L70.3376 29.6299ZM60.914 30.2752C58.1833 30.6143 55.4291 31.0975 52.7063 31.8742L53.7317 36.093C56.2058 35.3879 58.7696 34.9322 61.3736 34.6088L60.914 30.2752ZM48.6292 33.3348C47.8133 33.6948 47.0234 34.1111 46.2652 34.5805L46.2621 34.5844L46.2573 34.586C45.1753 35.2675 44.035 36.1323 43.1041 37.3891C42.4297 38.2995 41.8781 39.4508 41.749 40.8122L45.7584 41.2568C45.7883 40.9373 45.952 40.5156 46.2463 40.1189H46.2479V40.1174C46.7224 39.4752 47.4338 38.8921 48.2798 38.3586L48.2829 38.357C48.8864 37.9856 49.5142 37.6554 50.1621 37.3686L48.6292 33.3348ZM46.565 43.199L43.9658 46.5317C44.582 47.0951 45.228 47.5279 45.8521 47.8899L45.8599 47.8938L45.8678 47.8986C47.939 49.0766 50.0748 49.7416 52.0547 50.3727L53.1926 46.1878C51.2135 45.5567 49.3476 44.9476 47.7486 44.0394C47.2906 43.7735 46.8893 43.4957 46.565 43.199ZM57.0588 47.365L55.9477 51.557L56.4733 51.7207L57.1186 51.9269C59.2544 52.6218 61.3004 53.3638 63.1292 54.3908L64.9848 50.5191C62.7735 49.2765 60.478 48.4644 58.266 47.7451L58.2597 47.7435L57.5971 47.5319L57.0588 47.365ZM68.7582 53.4244L65.9071 56.5092C66.5807 57.2387 67.0852 58.1161 67.3307 59.0227L67.3322 59.0274L67.3338 59.0345C67.6266 60.0929 67.6273 61.3378 67.3983 62.5954L71.3519 63.439C71.6746 61.6636 71.7265 59.7144 71.1961 57.7903C70.7342 56.089 69.8528 54.6111 68.7582 53.4244ZM66.0181 65.2237C65.5818 65.6832 65.1004 66.0977 64.5811 66.4608H64.5795C63.1631 67.457 61.5199 68.2078 59.7745 68.8531L61.0761 72.9798C62.9852 72.2739 64.9455 71.4082 66.7775 70.1192L66.7822 70.1153L66.7845 70.1137C67.5367 69.5867 68.2326 68.9836 68.8613 68.314L66.0181 65.2237ZM56.0712 70.0154C53.5428 70.6953 50.9585 71.2131 48.3427 71.6522L48.9597 75.9638C51.6518 75.5113 54.3549 74.9707 57.0415 74.2483L56.0712 70.0154ZM44.4073 72.2471C41.7742 72.6067 39.1269 72.9003 36.4718 73.1505L36.8196 77.496C39.5157 77.2426 42.2164 76.9443 44.9133 76.5753L44.4073 72.2471ZM32.4813 73.4928C29.8206 73.7037 27.1537 73.8753 24.4844 74.0201L24.6859 78.3766C27.3811 78.231 30.0788 78.0571 32.7756 77.843L32.4813 73.4928ZM20.4734 74.2168C18.8736 74.2916 17.2698 74.353 15.6621 74.4096L15.7943 78.77C17.4121 78.7144 19.0295 78.6499 20.6466 78.5764L20.4734 74.2168Z" fill="#216BFF"/>
</svg>
