<svg width="294" height="81" viewBox="0 0 294 81" fill="none" xmlns="http://www.w3.org/2000/svg">
<g filter="url(#filter0_d_1278_1136)">
<path d="M4.76758 72.5491V22.4908C4.76758 9.14189 15.8917 2.46744 21.4537 0.798828H38.1398C44.8143 1.91124 61.5004 8.61843 61.5004 27.4966C61.5004 47.52 45.9267 51.9696 36.4712 52.5258H21.4537V62.5375C21.4537 69.2119 15.8689 70.3357 14.7793 70.8805C13.484 71.5282 7.5486 72.5491 4.76758 72.5491Z" fill="#216BFF"/>
</g>
<g filter="url(#filter1_d_1278_1136)">
<path d="M19.7168 37.584C18.0487 37.5848 9.14891 36.4716 4.69928 37.584C4.69892 24.1943 1.43003 4.16566 21.3849 0.830411C33.0214 -1.11451 46.4825 17.4848 44.8139 30.8487C43.3669 42.4382 31.465 52.5256 29.7964 52.5256C18.603 52.5256 23.4479 37.5824 19.7168 37.584Z" fill="url(#paint0_linear_1278_1136)"/>
</g>
<g filter="url(#filter2_d_1278_1136)">
<path d="M20.007 37.508V27.4964H16.4473L30.6861 14.1475L43.1451 27.4964H39.5854V37.508H32.4659V30.8336H27.1264V37.508H20.007Z" fill="white"/>
</g>
<path d="M99.38 53.6191V20.0191H110.948C112.756 20.0191 114.388 20.4671 115.844 21.3631C117.316 22.2591 118.484 23.4671 119.348 24.9871C120.228 26.5071 120.668 28.1871 120.668 30.0271C120.668 31.8991 120.22 33.5951 119.324 35.1151C118.444 36.6191 117.268 37.8191 115.796 38.7151C114.324 39.6111 112.708 40.0591 110.948 40.0591H104.372V53.6191H99.38ZM104.372 35.0671H110.444C111.404 35.0671 112.276 34.8271 113.06 34.3471C113.86 33.8671 114.492 33.2271 114.956 32.4271C115.436 31.6271 115.676 30.7231 115.676 29.7151C115.676 28.7071 115.436 27.8031 114.956 27.0031C114.492 26.1871 113.86 25.5471 113.06 25.0831C112.276 24.6031 111.404 24.3631 110.444 24.3631H104.372V35.0671ZM136.769 53.6191H131.801L123.761 29.6191H128.657L134.321 46.4671L139.937 29.6191H144.977L150.593 46.4671L156.233 29.6191H161.129L153.113 53.6191H148.097L142.433 36.6511L136.769 53.6191ZM174.192 54.2431C171.984 54.2431 169.968 53.6751 168.144 52.5391C166.336 51.4031 164.888 49.8831 163.8 47.9791C162.728 46.0591 162.192 43.9391 162.192 41.6191C162.192 39.8591 162.504 38.2191 163.128 36.6991C163.752 35.1631 164.608 33.8191 165.696 32.6671C166.8 31.4991 168.08 30.5871 169.536 29.9311C170.992 29.2751 172.544 28.9471 174.192 28.9471C176.032 28.9471 177.72 29.3311 179.256 30.0991C180.792 30.8511 182.104 31.8991 183.192 33.2431C184.28 34.5711 185.08 36.1071 185.592 37.8511C186.104 39.5791 186.256 41.4191 186.048 43.3711H167.544C167.752 44.4751 168.152 45.4751 168.744 46.3711C169.352 47.2511 170.12 47.9471 171.048 48.4591C171.992 48.9711 173.04 49.2351 174.192 49.2511C175.408 49.2511 176.512 48.9471 177.504 48.3391C178.512 47.7311 179.336 46.8911 179.976 45.8191L185.04 46.9951C184.08 49.1231 182.632 50.8671 180.696 52.2271C178.76 53.5711 176.592 54.2431 174.192 54.2431ZM167.376 39.5551H181.008C180.848 38.4031 180.44 37.3631 179.784 36.4351C179.144 35.4911 178.336 34.7471 177.36 34.2031C176.4 33.6431 175.344 33.3631 174.192 33.3631C173.056 33.3631 172 33.6351 171.024 34.1791C170.064 34.7231 169.264 35.4671 168.624 36.4111C168 37.3391 167.584 38.3871 167.376 39.5551ZM189.407 53.6191V17.6191H194.399V53.6191H189.407ZM199.853 36.7231H215.213V41.7151H199.853V36.7231ZM232.682 54.2431C230.842 54.2431 229.074 53.9551 227.378 53.3791C225.682 52.8031 224.202 51.9791 222.938 50.9071C221.674 49.8191 220.77 48.5311 220.226 47.0431L224.906 45.2911C225.178 46.0591 225.698 46.7471 226.466 47.3551C227.25 47.9471 228.178 48.4111 229.25 48.7471C230.338 49.0831 231.482 49.2511 232.682 49.2511C233.962 49.2511 235.162 49.0431 236.282 48.6271C237.418 48.2111 238.33 47.6351 239.018 46.8991C239.722 46.1631 240.074 45.2991 240.074 44.3071C240.074 43.2831 239.706 42.4431 238.97 41.7871C238.25 41.1311 237.322 40.6111 236.186 40.2271C235.066 39.8431 233.898 39.5551 232.682 39.3631C230.33 38.9791 228.218 38.4191 226.346 37.6831C224.49 36.9471 223.018 35.9151 221.93 34.5871C220.858 33.2591 220.322 31.5311 220.322 29.4031C220.322 27.4031 220.89 25.6591 222.026 24.1711C223.178 22.6831 224.69 21.5311 226.562 20.7151C228.45 19.8831 230.49 19.4671 232.682 19.4671C234.49 19.4671 236.234 19.7551 237.914 20.3311C239.61 20.8911 241.098 21.7151 242.378 22.8031C243.674 23.8751 244.602 25.1791 245.162 26.7151L240.434 28.4191C240.162 27.6351 239.642 26.9551 238.874 26.3791C238.106 25.7871 237.178 25.3231 236.09 24.9871C235.018 24.6511 233.882 24.4831 232.682 24.4831C231.402 24.4671 230.202 24.6751 229.082 25.1071C227.978 25.5231 227.074 26.0991 226.37 26.8351C225.666 27.5711 225.314 28.4271 225.314 29.4031C225.314 30.6031 225.642 31.5151 226.298 32.1391C226.954 32.7631 227.834 33.2271 228.938 33.5311C230.058 33.8191 231.306 34.0831 232.682 34.3231C234.89 34.6751 236.93 35.2591 238.802 36.0751C240.69 36.8911 242.202 37.9791 243.338 39.3391C244.49 40.6831 245.066 42.3391 245.066 44.3071C245.066 46.2911 244.49 48.0351 243.338 49.5391C242.202 51.0271 240.69 52.1871 238.802 53.0191C236.93 53.8351 234.89 54.2431 232.682 54.2431ZM268.199 29.6191H273.191V53.6191H268.175L267.983 50.1391C267.279 51.3711 266.327 52.3631 265.127 53.1151C263.927 53.8671 262.511 54.2431 260.879 54.2431C259.119 54.2431 257.463 53.9151 255.911 53.2591C254.359 52.5871 252.991 51.6591 251.807 50.4751C250.639 49.2911 249.727 47.9311 249.071 46.3951C248.415 44.8431 248.087 43.1791 248.087 41.4031C248.087 39.6911 248.407 38.0831 249.047 36.5791C249.687 35.0591 250.575 33.7311 251.711 32.5951C252.847 31.4591 254.159 30.5711 255.647 29.9311C257.151 29.2751 258.759 28.9471 260.471 28.9471C262.215 28.9471 263.751 29.3471 265.079 30.1471C266.423 30.9311 267.535 31.9391 268.415 33.1711L268.199 29.6191ZM260.759 49.4191C262.167 49.4191 263.399 49.0751 264.455 48.3871C265.511 47.6831 266.327 46.7391 266.903 45.5551C267.495 44.3711 267.791 43.0591 267.791 41.6191C267.791 40.1631 267.495 38.8431 266.903 37.6591C266.311 36.4751 265.487 35.5391 264.431 34.8511C263.391 34.1471 262.167 33.7951 260.759 33.7951C259.367 33.7951 258.095 34.1471 256.943 34.8511C255.791 35.5551 254.879 36.4991 254.207 37.6831C253.535 38.8671 253.199 40.1791 253.199 41.6191C253.199 43.0751 253.543 44.3951 254.231 45.5791C254.935 46.7471 255.855 47.6831 256.991 48.3871C258.143 49.0751 259.399 49.4191 260.759 49.4191ZM277.692 53.6191V29.6191H282.684V32.1631C283.516 31.1711 284.54 30.3871 285.756 29.8111C286.972 29.2351 288.284 28.9471 289.692 28.9471C290.588 28.9471 291.476 29.0671 292.356 29.3071L290.364 34.3471C289.74 34.1071 289.116 33.9871 288.492 33.9871C287.436 33.9871 286.468 34.2511 285.588 34.7791C284.708 35.2911 284.004 35.9871 283.476 36.8671C282.948 37.7471 282.684 38.7231 282.684 39.7951V53.6191H277.692Z" fill="#216BFF"/>
<defs>
<filter id="filter0_d_1278_1136" x="0.767578" y="0.798828" width="64.7324" height="79.75" filterUnits="userSpaceOnUse" color-interpolation-filters="sRGB">
<feFlood flood-opacity="0" result="BackgroundImageFix"/>
<feColorMatrix in="SourceAlpha" type="matrix" values="0 0 0 0 0 0 0 0 0 0 0 0 0 0 0 0 0 0 127 0" result="hardAlpha"/>
<feOffset dy="4"/>
<feGaussianBlur stdDeviation="2"/>
<feComposite in2="hardAlpha" operator="out"/>
<feColorMatrix type="matrix" values="0 0 0 0 0 0 0 0 0 0 0 0 0 0 0 0 0 0 0.25 0"/>
<feBlend mode="normal" in2="BackgroundImageFix" result="effect1_dropShadow_1278_1136"/>
<feBlend mode="normal" in="SourceGraphic" in2="effect1_dropShadow_1278_1136" result="shape"/>
</filter>
<filter id="filter1_d_1278_1136" x="0.5" y="0.689453" width="48.4551" height="59.8359" filterUnits="userSpaceOnUse" color-interpolation-filters="sRGB">
<feFlood flood-opacity="0" result="BackgroundImageFix"/>
<feColorMatrix in="SourceAlpha" type="matrix" values="0 0 0 0 0 0 0 0 0 0 0 0 0 0 0 0 0 0 127 0" result="hardAlpha"/>
<feOffset dy="4"/>
<feGaussianBlur stdDeviation="2"/>
<feComposite in2="hardAlpha" operator="out"/>
<feColorMatrix type="matrix" values="0 0 0 0 0 0 0 0 0 0 0 0 0 0 0 0 0 0 0.25 0"/>
<feBlend mode="normal" in2="BackgroundImageFix" result="effect1_dropShadow_1278_1136"/>
<feBlend mode="normal" in="SourceGraphic" in2="effect1_dropShadow_1278_1136" result="shape"/>
</filter>
<filter id="filter2_d_1278_1136" x="12.4473" y="14.1475" width="34.6973" height="31.3604" filterUnits="userSpaceOnUse" color-interpolation-filters="sRGB">
<feFlood flood-opacity="0" result="BackgroundImageFix"/>
<feColorMatrix in="SourceAlpha" type="matrix" values="0 0 0 0 0 0 0 0 0 0 0 0 0 0 0 0 0 0 127 0" result="hardAlpha"/>
<feOffset dy="4"/>
<feGaussianBlur stdDeviation="2"/>
<feComposite in2="hardAlpha" operator="out"/>
<feColorMatrix type="matrix" values="0 0 0 0 0 0 0 0 0 0 0 0 0 0 0 0 0 0 0.25 0"/>
<feBlend mode="normal" in2="BackgroundImageFix" result="effect1_dropShadow_1278_1136"/>
<feBlend mode="normal" in="SourceGraphic" in2="effect1_dropShadow_1278_1136" result="shape"/>
</filter>
<linearGradient id="paint0_linear_1278_1136" x1="-2.34001" y1="-12.9906" x2="48.96" y2="59.9695" gradientUnits="userSpaceOnUse">
<stop stop-color="#3A79F8"/>
<stop offset="1" stop-color="#144099"/>
</linearGradient>
</defs>
</svg>
