<svg width="34" height="31" viewBox="0 0 34 31" fill="none" xmlns="http://www.w3.org/2000/svg">
<path d="M25 6.77214H26.6667V8.4388C26.6667 8.88083 26.8423 9.30475 27.1548 9.61731C27.4674 9.92987 27.8913 10.1055 28.3333 10.1055C28.7754 10.1055 29.1993 9.92987 29.5118 9.61731C29.8244 9.30475 30 8.88083 30 8.4388V6.77214H31.6667C32.1087 6.77214 32.5326 6.59654 32.8452 6.28398C33.1577 5.97142 33.3333 5.5475 33.3333 5.10547C33.3333 4.66344 33.1577 4.23952 32.8452 3.92696C32.5326 3.6144 32.1087 3.4388 31.6667 3.4388H30V1.77214C30 1.33011 29.8244 0.906185 29.5118 0.593624C29.1993 0.281063 28.7754 0.105469 28.3333 0.105469C27.8913 0.105469 27.4674 0.281063 27.1548 0.593624C26.8423 0.906185 26.6667 1.33011 26.6667 1.77214V3.4388H25C24.558 3.4388 24.134 3.6144 23.8215 3.92696C23.5089 4.23952 23.3333 4.66344 23.3333 5.10547C23.3333 5.5475 23.5089 5.97142 23.8215 6.28398C24.134 6.59654 24.558 6.77214 25 6.77214ZM31.6667 13.4388C31.2246 13.4388 30.8007 13.6144 30.4881 13.927C30.1756 14.2395 30 14.6634 30 15.1055V25.1055C30 25.5475 29.8244 25.9714 29.5118 26.284C29.1993 26.5965 28.7754 26.7721 28.3333 26.7721H5C4.55797 26.7721 4.13405 26.5965 3.82149 26.284C3.50893 25.9714 3.33333 25.5475 3.33333 25.1055V9.12214L13.1333 18.9388C14.0708 19.8751 15.3417 20.4011 16.6667 20.4011C17.9917 20.4011 19.2625 19.8751 20.2 18.9388L24.3167 14.8221C24.6305 14.5083 24.8068 14.0826 24.8068 13.6388C24.8068 13.195 24.6305 12.7693 24.3167 12.4555C24.0028 12.1416 23.5772 11.9653 23.1333 11.9653C22.6895 11.9653 22.2638 12.1416 21.95 12.4555L17.8333 16.5721C17.5218 16.8775 17.1029 17.0486 16.6667 17.0486C16.2304 17.0486 15.8115 16.8775 15.5 16.5721L5.68333 6.77214H18.3333C18.7754 6.77214 19.1993 6.59654 19.5118 6.28398C19.8244 5.97142 20 5.5475 20 5.10547C20 4.66344 19.8244 4.23952 19.5118 3.92696C19.1993 3.6144 18.7754 3.4388 18.3333 3.4388H5C3.67392 3.4388 2.40215 3.96559 1.46447 4.90327C0.526784 5.84095 0 7.11272 0 8.4388V25.1055C0 26.4316 0.526784 27.7033 1.46447 28.641C2.40215 29.5787 3.67392 30.1055 5 30.1055H28.3333C29.6594 30.1055 30.9312 29.5787 31.8689 28.641C32.8065 27.7033 33.3333 26.4316 33.3333 25.1055V15.1055C33.3333 14.6634 33.1577 14.2395 32.8452 13.927C32.5326 13.6144 32.1087 13.4388 31.6667 13.4388Z" fill="#216BFF"/>
</svg>
