<svg width="148" height="102" viewBox="0 0 148 102" fill="none" xmlns="http://www.w3.org/2000/svg">
<ellipse cx="119.074" cy="28.5128" rx="28.0369" ry="28.3234" fill="#FFE9B2"/>
<path d="M67.6719 79.8487V36.4785H109.143V79.8487H67.6719Z" fill="#D8E5FF"/>
<path d="M109.143 79.85V36.4798L119.072 27.0387L122.285 29.989V25.5635H126.082V31.4642L131.046 37.0699V79.85H109.143Z" fill="#98BAFC"/>
<path d="M109.143 36.4793H67.6719L82.5665 26.7432L119.073 27.0382L109.143 36.4793Z" fill="#216BFF"/>
<rect x="116.738" y="43.8555" width="2.52129" height="2.83257" fill="#1757D7"/>
<rect x="116.738" y="48.1035" width="2.52129" height="2.83257" fill="#1757D7"/>
<rect x="121.574" y="48.1035" width="2.52129" height="2.83257" fill="#1757D7"/>
<rect x="121.574" y="43.8555" width="2.52129" height="2.83257" fill="#1757D7"/>
<rect x="116.738" y="61.5586" width="2.52129" height="2.83257" fill="#1757D7"/>
<rect x="116.738" y="65.8057" width="2.52129" height="2.83257" fill="#1757D7"/>
<rect x="121.574" y="65.8057" width="2.52129" height="2.83257" fill="#1757D7"/>
<rect x="121.574" y="61.5586" width="2.52129" height="2.83257" fill="#1757D7"/>
<path d="M52.1959 78.924L51.4155 54.1487C51.4003 53.538 51.1469 52.9575 50.7095 52.531C50.2722 52.1046 49.6854 51.866 49.0746 51.8662H48.0992C47.4883 51.866 46.9016 52.1046 46.4642 52.531C46.0268 52.9575 45.7735 53.538 45.7582 54.1487L44.9779 78.924C44.9674 79.2379 45.0202 79.5507 45.1332 79.8438C45.2461 80.1369 45.4169 80.4043 45.6353 80.63C45.8537 80.8557 46.1154 81.0351 46.4046 81.1576C46.6938 81.2801 47.0047 81.3432 47.3188 81.343H49.8744C50.1885 81.3432 50.4994 81.2801 50.7887 81.1576C51.0779 81.0351 51.3395 80.8557 51.5579 80.63C51.7764 80.4043 51.9471 80.1369 52.0601 79.8438C52.173 79.5507 52.2259 79.2379 52.2154 78.924H52.1959Z" fill="url(#paint0_linear_1556_105)" stroke="#744E2D" stroke-width="0.125" stroke-linecap="round" stroke-linejoin="round"/>
<path d="M57.8339 62.0106C62.4344 62.0106 66.1639 58.2986 66.1639 53.7197C66.1639 49.1407 62.4344 45.4287 57.8339 45.4287C53.2334 45.4287 49.5039 49.1407 49.5039 53.7197C49.5039 58.2986 53.2334 62.0106 57.8339 62.0106Z" fill="url(#paint1_linear_1556_105)" stroke="#40C057" stroke-width="0.125" stroke-miterlimit="10" stroke-linecap="round"/>
<path d="M36.6288 58.3241C41.2293 58.3241 44.9588 54.6121 44.9588 50.0331C44.9588 45.4542 41.2293 41.7422 36.6288 41.7422C32.0283 41.7422 28.2988 45.4542 28.2988 50.0331C28.2988 54.6121 32.0283 58.3241 36.6288 58.3241Z" fill="url(#paint2_linear_1556_105)" stroke="#40C057" stroke-width="0.125" stroke-miterlimit="10" stroke-linecap="round"/>
<path d="M62.4588 28.8466C61.7448 28.8503 61.0328 28.9222 60.3324 29.0612C60.0762 28.1893 59.6094 27.3938 58.9732 26.7449C58.337 26.0959 57.551 25.6134 56.6843 25.3399C55.8177 25.0664 54.8971 25.0102 54.0036 25.1765C53.1102 25.3427 52.2713 25.7261 51.561 26.293C50.8507 26.8598 50.2907 27.5927 49.9305 28.427C49.5702 29.2614 49.4207 30.1715 49.4952 31.0772C49.5696 31.9829 49.8658 32.8564 50.3574 33.6207C50.8491 34.385 51.5212 35.0166 52.3146 35.4599C51.6884 36.8594 51.3628 38.3746 51.3587 39.9078C51.351 42.104 51.9949 44.2531 53.209 46.0832C54.4232 47.9133 56.1529 49.3421 58.1794 50.1888C60.2058 51.0355 62.4379 51.2621 64.5931 50.8397C66.7484 50.4174 68.7299 49.3653 70.287 47.8164C71.844 46.2676 72.9066 44.2916 73.3403 42.1386C73.774 39.9856 73.5592 37.7524 72.7232 35.7215C71.8872 33.6906 70.4676 31.9534 68.6439 30.7296C66.8202 29.5058 64.6745 28.8505 62.4783 28.8466H62.4588Z" fill="url(#paint3_linear_1556_105)" stroke="#40C057" stroke-width="0.125" stroke-miterlimit="10" stroke-linecap="round"/>
<path d="M56.9171 36.2212C56.8955 33.7839 56.0737 31.4213 54.5781 29.4968C53.0826 27.5722 50.9961 26.1924 48.6397 25.5695C46.2833 24.9466 43.7875 25.1151 41.5363 26.0492C39.2851 26.9833 37.4031 28.6312 36.1799 30.7394C35.9849 30.7394 35.8288 30.6809 35.6337 30.6809C33.6443 30.6849 31.723 31.4057 30.222 32.7113C28.721 34.0169 27.7408 35.8198 27.4611 37.7894C27.1814 39.7591 27.621 41.7635 28.6992 43.4354C29.7774 45.1072 31.4221 46.3345 33.3318 46.8921C33.0242 47.5864 32.8647 48.3372 32.8636 49.0965C32.858 50.1632 33.1616 51.2087 33.7376 52.1065C34.3137 53.0044 35.1375 53.7161 36.1094 54.1556C37.0814 54.5952 38.1599 54.7437 39.2144 54.5833C40.269 54.4229 41.2546 53.9604 42.0519 53.2518C43.1141 54.6147 44.5747 55.6126 46.2305 56.1067C47.8864 56.6007 49.655 56.5664 51.2904 56.0084C52.9257 55.4504 54.3465 54.3965 55.355 52.9933C56.3635 51.5902 56.9095 49.9076 56.9171 48.1797C56.9109 46.1523 56.1533 44.1991 54.7907 42.6979C56.1709 40.8204 56.9159 38.5514 56.9171 36.2212Z" fill="url(#paint4_linear_1556_105)" stroke="#40C057" stroke-width="0.125" stroke-miterlimit="10" stroke-linecap="round"/>
<g clip-path="url(#clip0_1556_105)">
<path d="M58.2443 25.1596C59.9682 25.1596 61.3657 23.7621 61.3657 22.0383C61.3657 20.3144 59.9682 18.917 58.2443 18.917C56.5205 18.917 55.123 20.3144 55.123 22.0383C55.123 23.7621 56.5205 25.1596 58.2443 25.1596Z" fill="url(#paint5_linear_1556_105)" stroke="#F8AF18" stroke-width="0.0625" stroke-miterlimit="10"/>
<path d="M42.6389 25.1596C44.3627 25.1596 45.7602 23.7621 45.7602 22.0383C45.7602 20.3144 44.3627 18.917 42.6389 18.917C40.915 18.917 39.5176 20.3144 39.5176 22.0383C39.5176 23.7621 40.915 25.1596 42.6389 25.1596Z" fill="url(#paint6_linear_1556_105)" stroke="#F8AF18" stroke-width="0.0625" stroke-miterlimit="10"/>
<path d="M30.1535 25.9407C31.4464 25.9407 32.4945 24.8927 32.4945 23.5998C32.4945 22.3069 31.4464 21.2588 30.1535 21.2588C28.8606 21.2588 27.8125 22.3069 27.8125 23.5998C27.8125 24.8927 28.8606 25.9407 30.1535 25.9407Z" fill="url(#paint7_linear_1556_105)" stroke="#F8AF18" stroke-width="0.0625" stroke-miterlimit="10"/>
<path d="M70.7296 25.9407C72.0225 25.9407 73.0706 24.8927 73.0706 23.5998C73.0706 22.3069 72.0225 21.2588 70.7296 21.2588C69.4368 21.2588 68.3887 22.3069 68.3887 23.5998C68.3887 24.8927 69.4368 25.9407 70.7296 25.9407Z" fill="url(#paint8_linear_1556_105)" stroke="#F8AF18" stroke-width="0.0625" stroke-miterlimit="10"/>
</g>
<rect x="81.6914" y="62.1465" width="11.6821" height="17.7021" fill="#216BFF"/>
<rect x="72.9297" y="45.0352" width="30.9575" height="5.9007" fill="#216BFF"/>
<rect x="72.9297" y="53.8857" width="30.9575" height="5.90071" fill="#216BFF"/>
<defs>
<linearGradient id="paint0_linear_1556_105" x1="41.642" y1="55.2411" x2="55.1611" y2="78.6509" gradientUnits="userSpaceOnUse">
<stop stop-color="#875B34"/>
<stop offset="0.5" stop-color="#875B34"/>
<stop offset="1" stop-color="#624226"/>
</linearGradient>
<linearGradient id="paint1_linear_1556_105" x1="53.6786" y1="46.5212" x2="61.9891" y2="60.8987" gradientUnits="userSpaceOnUse">
<stop stop-color="#51CF66"/>
<stop offset="0.5" stop-color="#51CF66"/>
<stop offset="1" stop-color="#37B24D"/>
</linearGradient>
<linearGradient id="paint2_linear_1556_105" x1="32.4736" y1="42.8346" x2="40.784" y2="57.2121" gradientUnits="userSpaceOnUse">
<stop stop-color="#51CF66"/>
<stop offset="0.5" stop-color="#51CF66"/>
<stop offset="1" stop-color="#37B24D"/>
</linearGradient>
<linearGradient id="paint3_linear_1556_105" x1="53.8557" y1="25.0035" x2="67.9991" y2="49.4863" gradientUnits="userSpaceOnUse">
<stop stop-color="#51CF66"/>
<stop offset="0.5" stop-color="#51CF66"/>
<stop offset="1" stop-color="#37B24D"/>
</linearGradient>
<linearGradient id="paint4_linear_1556_105" x1="37.0773" y1="28.4764" x2="52.6448" y2="55.4367" gradientUnits="userSpaceOnUse">
<stop stop-color="#51CF66"/>
<stop offset="0.5" stop-color="#51CF66"/>
<stop offset="1" stop-color="#37B24D"/>
</linearGradient>
<linearGradient id="paint5_linear_1556_105" x1="56.6837" y1="19.3267" x2="59.805" y2="24.7499" gradientUnits="userSpaceOnUse">
<stop stop-color="#FBBF24"/>
<stop offset="0.5" stop-color="#FBBF24"/>
<stop offset="1" stop-color="#F59E0B"/>
</linearGradient>
<linearGradient id="paint6_linear_1556_105" x1="41.0782" y1="19.3267" x2="44.1995" y2="24.7499" gradientUnits="userSpaceOnUse">
<stop stop-color="#FBBF24"/>
<stop offset="0.5" stop-color="#FBBF24"/>
<stop offset="1" stop-color="#F59E0B"/>
</linearGradient>
<linearGradient id="paint7_linear_1556_105" x1="28.983" y1="21.5709" x2="31.324" y2="25.6286" gradientUnits="userSpaceOnUse">
<stop stop-color="#FBBF24"/>
<stop offset="0.5" stop-color="#FBBF24"/>
<stop offset="1" stop-color="#F59E0B"/>
</linearGradient>
<linearGradient id="paint8_linear_1556_105" x1="69.5592" y1="21.5709" x2="71.9001" y2="25.6286" gradientUnits="userSpaceOnUse">
<stop stop-color="#FBBF24"/>
<stop offset="0.5" stop-color="#FBBF24"/>
<stop offset="1" stop-color="#F59E0B"/>
</linearGradient>
<clipPath id="clip0_1556_105">
<rect width="45.649" height="14.436" fill="white" transform="translate(27.6172 17.5518)"/>
</clipPath>
</defs>
</svg>
