<svg width="34" height="34" viewBox="0 0 34 34" fill="none" xmlns="http://www.w3.org/2000/svg">
<path d="M33.0587 1.51266C32.2254 0.660993 30.9921 0.345992 29.8421 0.679326L3.02539 8.42766C1.81205 8.76433 0.952054 9.72599 0.720388 10.946C0.483721 12.1893 1.31039 13.7693 2.39039 14.4293L10.7754 19.5493C11.6354 20.076 12.7454 19.9443 13.4571 19.231L23.0587 9.62932C23.5421 9.12766 24.3421 9.12766 24.8254 9.62932C25.3087 10.111 25.3087 10.896 24.8254 11.396L15.2071 20.9977C14.4937 21.711 14.3604 22.8177 14.8854 23.6793L20.0087 32.096C20.6087 33.0943 21.6421 33.6627 22.7754 33.6627C22.9087 33.6627 23.0587 33.6627 23.1921 33.6443C24.4921 33.4793 25.5254 32.5943 25.9087 31.3443L33.8587 4.72933C34.2087 3.59599 33.8921 2.36266 33.0587 1.51266Z" fill="#216BFF"/>
<path opacity="0.4" d="M13.0997 29.1188C13.5863 29.6071 13.5863 30.3988 13.0997 30.8871L10.823 33.1621C10.5797 33.4071 10.2597 33.5288 9.93965 33.5288C9.61965 33.5288 9.29965 33.4071 9.05632 33.1621C8.56798 32.6738 8.56798 31.8838 9.05632 31.3955L11.3313 29.1188C11.8197 28.6321 12.6113 28.6321 13.0997 29.1188ZM11.7935 22.8055C12.2802 23.2938 12.2802 24.0855 11.7935 24.5738L9.51682 26.8488C9.27348 27.0938 8.95348 27.2155 8.63348 27.2155C8.31348 27.2155 7.99348 27.0938 7.75015 26.8488C7.26182 26.3605 7.26182 25.5705 7.75015 25.0821L10.0252 22.8055C10.5135 22.3188 11.3052 22.3188 11.7935 22.8055ZM5.52482 20.8181C6.01148 21.3065 6.01148 22.0981 5.52482 22.5865L3.24815 24.8615C3.00482 25.1065 2.68482 25.2281 2.36482 25.2281C2.04482 25.2281 1.72482 25.1065 1.48148 24.8615C0.993151 24.3731 0.993151 23.5831 1.48148 23.0948L3.75648 20.8181C4.24482 20.3315 5.03648 20.3315 5.52482 20.8181Z" fill="#216BFF"/>
</svg>
